<svg xmlns="http://www.w3.org/2000/svg" xmlns:svg="http://www.w3.org/2000/svg" id="svg2" width="300" height="140.001" version="1.1"><metadata id="metadata7"/><g id="layer1" transform="translate(-223.21875,-469.24915)"><path style="fill:#fff;fill-opacity:1;stroke:none" id="path2987" d="m 373.21875,469.25 c -63.15236,-0.28299 -150,70 -150,70 0,0 78.75568,70 150,70 62.82091,0 150,-70 150,-70 0,0 -87.47199,-69.71981 -150,-70 z m -1.5,22.3125 c 27.44855,0 49.6875,22.23895 49.6875,49.6875 0,27.44855 -22.23895,49.6875 -49.6875,49.6875 C 344.2702,590.9375 322,568.69855 322,541.25 c 0,-27.44855 22.2702,-49.6875 49.71875,-49.6875 z m 0.0312,18.34375 c -17.85254,0 -32.34375,14.49121 -32.34375,32.34375 0,17.85254 14.49121,32.3125 32.34375,32.3125 17.85254,0 32.3125,-14.45996 32.3125,-32.3125 0,-17.85254 -14.45996,-32.34375 -32.3125,-32.34375 z"/></g></svg>