<svg xmlns="http://www.w3.org/2000/svg" xmlns:svg="http://www.w3.org/2000/svg" id="svg2" width="770.719" height="581.438" version="1.1"><metadata id="metadata7"/><g id="layer1" transform="translate(-63.5625,-233.7818)"><path style="fill:#fff;fill-opacity:1;stroke:none" id="rect2987" d="m 359.2768,233.7907 -295.7143,581.4286 295.7143,0 z"/><path style="fill:#fff;fill-opacity:1;stroke:none" id="rect2987-1" d="m 538.5625,233.7818 295.71875,581.4375 -295.71875,0 0,-581.4375 z m 29.125,117.4375 0,434.28125 218.59375,0 L 567.6875,351.2193 z"/><path style="fill:#fff;fill-opacity:1;stroke:none" id="rect3796" d="m 435.5625,233.93805 0,41.28125 25.71875,0 0,-41.28125 -25.71875,0 z m 0,91.28125 0,40 25.71875,0 0,-40 -25.71875,0 z m 0,90 0,40 25.71875,0 0,-40 -25.71875,0 z m 0,90 0,40 25.71875,0 0,-40 -25.71875,0 z m 0,90 0,40 25.71875,0 0,-40 -25.71875,0 z m 0,90 0,40 25.71875,0 0,-40 -25.71875,0 z m 0,90 0,40 25.71875,0 0,-40 -25.71875,0 z"/></g></svg>