<svg xmlns="http://www.w3.org/2000/svg" xmlns:svg="http://www.w3.org/2000/svg" id="svg2985" width="72" height="42" version="1.1"><metadata id="metadata2990"/><g id="layer1" transform="translate(0,-22)"><rect style="fill:#fff;fill-opacity:0;stroke:gold;stroke-width:4;stroke-linecap:butt;stroke-linejoin:round;stroke-miterlimit:3.20000005;stroke-opacity:1;stroke-dasharray:none;stroke-dashoffset:0" id="rect3769" width="68" height="38" x="2" y="24" ry="5.01"/><rect style="fill:gold;fill-opacity:1;stroke:none" id="rect3771" width="6" height="6" x="8" y="30"/><rect style="fill:gold;fill-opacity:1;stroke:none" id="rect3771-7" width="6" height="6" x="18" y="30"/><rect style="fill:gold;fill-opacity:1;stroke:none" id="rect3771-6" width="6" height="6" x="28" y="30"/><rect style="fill:gold;fill-opacity:1;stroke:none" id="rect3771-7-1" width="6" height="6" x="38" y="30"/><rect style="fill:gold;fill-opacity:1;stroke:none" id="rect3771-6-4" width="6" height="6" x="48" y="30"/><rect style="fill:gold;fill-opacity:1;stroke:none" id="rect3771-7-1-2" width="6" height="6" x="58" y="30"/><rect style="fill:gold;fill-opacity:1;stroke:none" id="rect3771-3" width="6" height="6" x="8" y="40"/><rect style="fill:gold;fill-opacity:1;stroke:none" id="rect3771-7-2" width="6" height="6" x="18" y="40"/><rect style="fill:gold;fill-opacity:1;stroke:none" id="rect3771-6-2" width="6" height="6" x="28" y="40"/><rect style="fill:gold;fill-opacity:1;stroke:none" id="rect3771-7-1-1" width="6" height="6" x="38" y="40"/><rect style="fill:gold;fill-opacity:1;stroke:none" id="rect3771-6-4-6" width="6" height="6" x="48" y="40"/><rect style="fill:gold;fill-opacity:1;stroke:none" id="rect3771-7-1-2-8" width="6" height="6" x="58" y="40"/><rect style="fill:gold;fill-opacity:1;stroke:none" id="rect3771-3-5" width="6" height="6" x="8" y="50"/><rect style="fill:gold;fill-opacity:1;stroke:none" id="rect3771-7-2-7" width="26" height="6" x="18" y="50"/><rect style="fill:gold;fill-opacity:1;stroke:none" id="rect3771-6-4-6-8" width="6" height="6" x="48" y="50"/><rect style="fill:gold;fill-opacity:1;stroke:none" id="rect3771-7-1-2-8-9" width="6" height="6" x="58" y="50"/></g></svg>