<svg xmlns="http://www.w3.org/2000/svg" xmlns:svg="http://www.w3.org/2000/svg" id="Layer_1" width="90" height="90" x="0" y="0" enable-background="new 0 0 89.231 100" version="1.1" viewBox="0 0 90 90" xml:space="preserve"><metadata id="metadata15"/><g id="g3760" transform="matrix(0,-0.97677741,0.97203982,0,-2.1261998,91.355253)" style="fill:#f0f;fill-opacity:1"><path style="fill:#f0f;fill-opacity:1" id="path3" d="m 29.229405,55.37008 c -0.387431,-1.333059 -0.642506,-2.72161 -0.738881,-4.152895 h -8.675106 c 0.115651,2.460738 0.552554,4.838559 1.260594,7.099021 z"/><path style="fill:#f0f;fill-opacity:1" id="path5" d="m 29.023802,70.783821 5.579515,-6.601516 c -1.862622,-1.780814 -3.387929,-3.907969 -4.44999,-6.287065 l -8.152106,2.946124 c 1.604978,3.800815 4.017584,7.185766 7.022581,9.942457 z"/><path style="fill:#f0f;fill-opacity:1" id="path7" d="m 47.110967,69.703978 c -3.887799,-0.260871 -7.469766,-1.6322 -10.437498,-3.790608 l -5.577588,6.598963 c 4.487901,3.403448 10.011517,5.524225 16.015086,5.803594 z"/><path style="fill:#f0f;fill-opacity:1;stroke:none" id="path9" d="M 48.464084,21.400659 V 14.532532 L 28.981398,25.698341 48.464084,36.86415 v -6.867489 c 11.042093,0 20.024317,8.91683 20.024317,19.877897 0,10.509484 -8.258763,19.134189 -18.671845,19.828145 v 8.611948 c 15.190751,-0.703524 27.330245,-13.189635 27.330245,-28.440093 0,-15.700763 -12.86681,-28.473899 -28.682717,-28.473899 z"/></g><g id="g4513" transform="translate(0,-2)"><rect id="rect4494" width="8" height="15.613" x="42" y="32.516" style="fill:#ff00f7;fill-opacity:1;stroke:#ffffed;stroke-width:0;stroke-linecap:butt;stroke-linejoin:round;stroke-miterlimit:4;stroke-dasharray:none;stroke-dashoffset:6.04534006;stroke-opacity:1"/><rect id="rect4494-7" width="8" height="15.613" x="12.681" y="-76.05" transform="rotate(120)" style="fill:#ff00f7;fill-opacity:1;stroke:#ffffed;stroke-width:0;stroke-linecap:butt;stroke-linejoin:round;stroke-miterlimit:4;stroke-dasharray:none;stroke-dashoffset:6.04534006;stroke-opacity:1"/></g></svg>