<svg xmlns="http://www.w3.org/2000/svg" xmlns:svg="http://www.w3.org/2000/svg" id="svg2985" width="60" height="60" version="1.1"><metadata id="metadata2990"/><g id="layer1" transform="translate(0,-4)"><path style="fill:#fff;fill-opacity:1;stroke:none" id="rect4592" d="m 18,24 2,26 20,0 2,-26 z m 4,4 4,0 0,18 -3,0 z m 6,0 4,0 0,18 -4,0 z m 6,0 4,0 -1,18 -3,0 z"/><path style="fill:#fff;fill-opacity:1;stroke:none" id="rect4594" d="m 20,18 c 4,-2 10,-2 10,-2 0,0 6,0 10,2 4,2 4,4 4,4 l -28,0 c 0,0 0,-2 4,-4 z"/></g></svg>