<svg xmlns="http://www.w3.org/2000/svg" xmlns:svg="http://www.w3.org/2000/svg" id="svg2" width="92" height="92" version="1.1"><metadata id="metadata7"/><g id="layer1" transform="translate(0,-960.36218)"><path style="font-size:medium;font-style:normal;font-variant:normal;font-weight:400;font-stretch:normal;text-indent:0;text-align:start;text-decoration:none;line-height:normal;letter-spacing:normal;word-spacing:normal;text-transform:none;direction:ltr;block-progression:tb;writing-mode:lr-tb;text-anchor:start;baseline-shift:baseline;color:#000;fill:#fff;fill-opacity:1;fill-rule:nonzero;stroke:none;stroke-width:3.9999997600000001;marker:none;visibility:visible;display:inline;overflow:visible;enable-background:accumulate;font-family:Sans;-inkscape-font-specification:Sans" id="rect3805" d="m 16,978.36218 0,2 0,52.00002 0,2 2,0 56,0 2,0 0,-2 0,-52.00002 0,-2 -2,0 -56,0 z m 4,4 52,0 0,48.00002 -52,0 z"/><path style="fill:#fff;fill-opacity:1;stroke:none" id="rect3807" d="m 38,992.36218 24,36.00002 -40,2e-4 z"/><path style="fill:#fff;fill-opacity:1;stroke:none" id="rect3807-0" d="m 56,1006.3622 14,21.9872 -28,0.013 z"/><path style="fill:#fff;fill-opacity:1;stroke:none" id="path3851" d="m 72.678569,32.892857 a 6.6071429,6.6071429 0 1 1 -13.214286,0 6.6071429,6.6071429 0 1 1 13.214286,0 z" transform="matrix(1.0594594,0,0,1.0594594,-8.9999941,960.51353)"/></g></svg>