<svg xmlns="http://www.w3.org/2000/svg" xmlns:svg="http://www.w3.org/2000/svg" id="svg2" width="92" height="92" version="1.1"><metadata id="metadata7"/><g id="layer1" transform="translate(0,-960.36218)"><path style="font-size:medium;font-style:normal;font-variant:normal;font-weight:400;font-stretch:normal;text-indent:0;text-align:start;text-decoration:none;line-height:normal;letter-spacing:normal;word-spacing:normal;text-transform:none;direction:ltr;block-progression:tb;writing-mode:lr-tb;text-anchor:start;baseline-shift:baseline;color:#000;fill:#fff;fill-opacity:1;stroke:none;stroke-width:4;marker:none;visibility:visible;display:inline;overflow:visible;enable-background:accumulate;font-family:Sans;-inkscape-font-specification:Sans" id="rect3765" d="m 16,976.375 0,2 0,56 0,1.9872 2,0 56,0 2,0 0,-1.9872 0,-56 0,-2 -2,0 -56,0 z m 4,4 52,0 0,52 -52,0 z"/><path style="font-size:medium;font-style:normal;font-variant:normal;font-weight:400;font-stretch:normal;text-indent:0;text-align:start;text-decoration:none;line-height:normal;letter-spacing:normal;word-spacing:normal;text-transform:none;direction:ltr;block-progression:tb;writing-mode:lr-tb;text-anchor:start;baseline-shift:baseline;color:#000;fill:#fff;fill-opacity:1;stroke:none;stroke-width:4;marker:none;visibility:visible;display:inline;overflow:visible;enable-background:accumulate;font-family:Sans;-inkscape-font-specification:Sans" id="rect3765-1" d="m 16,1002.3622 0,2.0128 0,30 0,1.9872 2,0 30,0 2,0 0,-1.9872 0,-30 0,-2.0128 -2,0 -30,0 z m 6,6 22,0 0,22 -22,0 z"/><path style="fill:#fff;fill-opacity:1;stroke:#ebebeb;stroke-width:0;stroke-linecap:butt;stroke-linejoin:miter;stroke-miterlimit:4;stroke-opacity:1;stroke-dashoffset:0" d="m 62.02106,990.36218 0,15.16432 -16,-15.16432 z"/><rect style="fill:#fff;fill-opacity:1;stroke:none" id="rect4670" width="15.057" height="7.107" x="-677.654" y="740.442" transform="matrix(0.70710678,-0.70710678,0.70710678,0.70710678,0,0)"/></g></svg>