<svg xmlns="http://www.w3.org/2000/svg" xmlns:svg="http://www.w3.org/2000/svg" id="svg2" width="92" height="92" version="1.1"><metadata id="metadata7"/><g id="layer1" transform="translate(0,-960.36218)"><path style="fill:#fff;fill-opacity:1;stroke:#000;stroke-width:0;stroke-linecap:butt;stroke-linejoin:miter;stroke-miterlimit:4;stroke-opacity:1;stroke-dashoffset:0" id="rect2985" d="m 20,18 0,56 52,0 0,-44 -12,-12 z m 12,4 14,0 0,10 8,0 0,-10 6,0 0,14 -28,0 z M 52.5,45.96875 C 56.001587,45.95825 60.006348,45.958 62,46 c 3.987305,0.084 4,6 4,6 l 0,16 -40,0 0,-16 c 0,0 -0.124714,-6 4,-6 l 16,0 c 0,0 2.998413,-0.02075 6.5,-0.03125 z" transform="translate(0,960.36218)"/><rect style="fill:#fff;fill-opacity:1;stroke:#000;stroke-width:0;stroke-linecap:butt;stroke-linejoin:miter;stroke-miterlimit:4;stroke-opacity:1;stroke-dasharray:none;stroke-dashoffset:0" id="rect3767" width="24" height="2" x="34" y="1010.362"/><rect style="fill:#fff;fill-opacity:1;stroke:#000;stroke-width:0;stroke-linecap:butt;stroke-linejoin:miter;stroke-miterlimit:4;stroke-opacity:1;stroke-dasharray:none;stroke-dashoffset:0" id="rect3767-1" width="24" height="2" x="34" y="1016.362"/><rect style="fill:#fff;fill-opacity:1;stroke:#000;stroke-width:0;stroke-linecap:butt;stroke-linejoin:miter;stroke-miterlimit:4;stroke-opacity:1;stroke-dasharray:none;stroke-dashoffset:0" id="rect3767-1-7" width="24" height="2" x="34" y="1022.362"/></g></svg>