<svg xmlns="http://www.w3.org/2000/svg" xmlns:svg="http://www.w3.org/2000/svg" id="Layer_1" width="92" height="92" x="0" y="0" enable-background="new 0 0 99.997 69.373" version="1.1" viewBox="0 0 92 92" xml:space="preserve"><metadata id="metadata9"/><path style="fill:#fff;fill-opacity:1;stroke:#000;stroke-width:0;stroke-linecap:butt;stroke-linejoin:miter;stroke-miterlimit:4;stroke-opacity:1;stroke-dasharray:none;stroke-dashoffset:0" id="rect3760" d="m 38,20 0,18 -18,0 0,4 20,0 2,0 0,-22 z"/><rect style="fill:#fff;fill-opacity:1;stroke:#000;stroke-width:0;stroke-linecap:butt;stroke-linejoin:miter;stroke-miterlimit:4;stroke-opacity:1;stroke-dasharray:none;stroke-dashoffset:0" id="rect3838-9" width="4" height="2" x="20" y="46"/><rect style="fill:#fff;fill-opacity:1;stroke:#000;stroke-width:0;stroke-linecap:butt;stroke-linejoin:miter;stroke-miterlimit:4;stroke-opacity:1;stroke-dasharray:none;stroke-dashoffset:0" id="rect3838-9-8" width="4" height="2" x="30" y="46"/><rect style="fill:#fff;fill-opacity:1;stroke:#000;stroke-width:0;stroke-linecap:butt;stroke-linejoin:miter;stroke-miterlimit:4;stroke-opacity:1;stroke-dasharray:none;stroke-dashoffset:0" id="rect3838-9-2" width="4" height="2" x="40" y="46"/><rect style="fill:#fff;fill-opacity:1;stroke:#000;stroke-width:0;stroke-linecap:butt;stroke-linejoin:miter;stroke-miterlimit:4;stroke-opacity:1;stroke-dasharray:none;stroke-dashoffset:0" id="rect3838-9-8-5" width="4" height="2" x="60" y="46"/><rect style="fill:#fff;fill-opacity:1;stroke:#000;stroke-width:0;stroke-linecap:butt;stroke-linejoin:miter;stroke-miterlimit:4;stroke-opacity:1;stroke-dasharray:none;stroke-dashoffset:0" id="rect3838-9-1" width="4" height="2" x="70" y="46"/><rect style="fill:#fff;fill-opacity:1;stroke:#000;stroke-width:0;stroke-linecap:butt;stroke-linejoin:miter;stroke-miterlimit:4;stroke-opacity:1;stroke-dasharray:none;stroke-dashoffset:0" id="rect3838-9-5" width="4" height="2" x="20" y="-48" transform="matrix(0,1,-1,0,0,0)"/><rect style="fill:#fff;fill-opacity:1;stroke:#000;stroke-width:0;stroke-linecap:butt;stroke-linejoin:miter;stroke-miterlimit:4;stroke-opacity:1;stroke-dasharray:none;stroke-dashoffset:0" id="rect3838-9-8-7" width="4" height="2" x="30" y="-48" transform="matrix(0,1,-1,0,0,0)"/><rect style="fill:#fff;fill-opacity:1;stroke:#000;stroke-width:0;stroke-linecap:butt;stroke-linejoin:miter;stroke-miterlimit:4;stroke-opacity:1;stroke-dasharray:none;stroke-dashoffset:0" id="rect3838-9-8-5-2" width="4" height="2" x="60" y="-48" transform="matrix(0,1,-1,0,0,0)"/><rect style="fill:#fff;fill-opacity:1;stroke:#000;stroke-width:0;stroke-linecap:butt;stroke-linejoin:miter;stroke-miterlimit:4;stroke-opacity:1;stroke-dasharray:none;stroke-dashoffset:0" id="rect3838-9-1-2" width="4" height="2" x="70" y="-48" transform="matrix(0,1,-1,0,0,0)"/><rect style="fill:#fff;fill-opacity:1;stroke:#000;stroke-width:0;stroke-linecap:butt;stroke-linejoin:miter;stroke-miterlimit:4;stroke-opacity:1;stroke-dasharray:none;stroke-dashoffset:0" id="rect3838-4-4-4-6" width="4" height="2" x="50" y="-48" transform="matrix(0,1,-1,0,0,0)"/><rect style="fill:#fff;fill-opacity:1;stroke:#000;stroke-width:0;stroke-linecap:butt;stroke-linejoin:miter;stroke-miterlimit:4;stroke-opacity:1;stroke-dasharray:none;stroke-dashoffset:0" id="rect3838-4-4-8" width="4" height="2" x="50" y="46"/><rect style="fill:#fff;fill-opacity:1;stroke:#000;stroke-width:0;stroke-linecap:butt;stroke-linejoin:miter;stroke-miterlimit:4;stroke-opacity:1;stroke-dasharray:none;stroke-dashoffset:0" id="rect3838-8-6-5" width="4" height="2" x="40" y="-48" transform="matrix(0,1,-1,0,0,0)"/><path style="fill:#fff;fill-opacity:1;stroke:#000;stroke-width:0;stroke-linecap:butt;stroke-linejoin:miter;stroke-miterlimit:4;stroke-opacity:1;stroke-dasharray:none;stroke-dashoffset:0" id="rect3760-7" d="m 73.999998,37.999999 -18,0 0,-17.999999 -3.999999,0 0,19.999999 0,2 21.999999,0 z"/><path style="fill:#fff;fill-opacity:1;stroke:#000;stroke-width:0;stroke-linecap:butt;stroke-linejoin:miter;stroke-miterlimit:4;stroke-opacity:1;stroke-dasharray:none;stroke-dashoffset:0" id="rect3760-6" d="m 37.999999,73.999995 0,-17.999999 -17.999999,0 0,-4 19.999999,0 2,0 0,21.999999 z"/><path style="fill:#fff;fill-opacity:1;stroke:#000;stroke-width:0;stroke-linecap:butt;stroke-linejoin:miter;stroke-miterlimit:4;stroke-opacity:1;stroke-dasharray:none;stroke-dashoffset:0" id="rect3760-7-1" d="m 73.999997,55.999996 -18,0 0,17.999999 -3.999999,0 0,-19.999999 0,-2 21.999999,0 z"/></svg>