<svg xmlns="http://www.w3.org/2000/svg" xmlns:svg="http://www.w3.org/2000/svg" id="Layer_1" width="92" height="92" x="0" y="0" enable-background="new 0 0 99.997 69.373" version="1.1" viewBox="0 0 92 92" xml:space="preserve"><metadata id="metadata9"/><rect style="fill:#fff;fill-opacity:1;stroke:#000;stroke-width:0;stroke-linecap:butt;stroke-linejoin:miter;stroke-miterlimit:4;stroke-opacity:1;stroke-dasharray:none;stroke-dashoffset:0" id="rect3838-9-5" width="4" height="2" x="20" y="-48" transform="matrix(0,1,-1,0,0,0)"/><rect style="fill:#fff;fill-opacity:1;stroke:#000;stroke-width:0;stroke-linecap:butt;stroke-linejoin:miter;stroke-miterlimit:4;stroke-opacity:1;stroke-dasharray:none;stroke-dashoffset:0" id="rect3838-9-8-7" width="4" height="2" x="30" y="-48" transform="matrix(0,1,-1,0,0,0)"/><rect style="fill:#fff;fill-opacity:1;stroke:#000;stroke-width:0;stroke-linecap:butt;stroke-linejoin:miter;stroke-miterlimit:4;stroke-opacity:1;stroke-dasharray:none;stroke-dashoffset:0" id="rect3838-9-8-5-2" width="4" height="2" x="60" y="-48" transform="matrix(0,1,-1,0,0,0)"/><rect style="fill:#fff;fill-opacity:1;stroke:#000;stroke-width:0;stroke-linecap:butt;stroke-linejoin:miter;stroke-miterlimit:4;stroke-opacity:1;stroke-dasharray:none;stroke-dashoffset:0" id="rect3838-9-1-2" width="4" height="2" x="70" y="-48" transform="matrix(0,1,-1,0,0,0)"/><rect style="fill:#fff;fill-opacity:1;stroke:#000;stroke-width:0;stroke-linecap:butt;stroke-linejoin:miter;stroke-miterlimit:4;stroke-opacity:1;stroke-dasharray:none;stroke-dashoffset:0" id="rect3838-4-4-4-6" width="4" height="2" x="50" y="-48" transform="matrix(0,1,-1,0,0,0)"/><rect style="fill:#fff;fill-opacity:1;stroke:#000;stroke-width:0;stroke-linecap:butt;stroke-linejoin:miter;stroke-miterlimit:4;stroke-opacity:1;stroke-dasharray:none;stroke-dashoffset:0" id="rect3838-8-6-5" width="4" height="2" x="40" y="-48" transform="matrix(0,1,-1,0,0,0)"/><path style="fill:#fff;fill-opacity:1;stroke:#000;stroke-width:0;stroke-linecap:butt;stroke-linejoin:miter;stroke-miterlimit:4;stroke-opacity:1;stroke-dashoffset:0" id="rect4199" d="m 39.999999,19.999999 0,53.999999 -26,0 z"/><path style="fill:#fff;fill-opacity:1;stroke:#000;stroke-width:0;stroke-linecap:butt;stroke-linejoin:miter;stroke-miterlimit:4;stroke-opacity:1;stroke-dashoffset:0" id="rect4199-8" d="m 54,20 0,54 26,0 -26,-54 z m 4,16 16,34 -16,0 0,-34 z"/></svg>