<svg xmlns="http://www.w3.org/2000/svg" xmlns:svg="http://www.w3.org/2000/svg" id="Layer_1" width="92" height="92" x="0" y="0" enable-background="new 0 0 99.997 69.373" version="1.1" viewBox="0 0 92 92" xml:space="preserve"><metadata id="metadata9"/><path style="fill:#fff;fill-opacity:1;stroke:none" id="path4854" d="M 46,16 C 29.431457,16 16,29.431458 16,46 16,62.568542 29.431457,76 46,76 62.568543,76 76,62.568542 76,46 76,29.431458 62.568543,16 46,16 z m 0,8 c 2.740787,0 5,0.552164 5,2 0,2.570512 -8.97335,6.288411 -8.97335,19.28125 C 42.02665,58.274089 51,63.252327 51,66 51,68.059378 48.190019,68 46,68 33.849736,68 24,58.150265 24,46 24,33.849735 33.849736,24 46,24 z m 6,19.999999 12,0 0,4 -12,0 z"/><path style="fill:#fff;fill-opacity:1;stroke:none" id="rect4862" d="m 31.999999,39.999999 0,4 -4,0 0,4 4,0 0,4 4,0 0,-4 4,0 0,-4 -4,0 0,-4 -4,0 z"/></svg>