<svg xmlns="http://www.w3.org/2000/svg" xmlns:svg="http://www.w3.org/2000/svg" id="Layer_1" width="92" height="92" x="0" y="0" enable-background="new 0 0 99.997 69.373" version="1.1" viewBox="0 0 92 92" xml:space="preserve"><metadata id="metadata9"/><path style="font-size:medium;font-style:normal;font-variant:normal;font-weight:400;font-stretch:normal;text-indent:0;text-align:start;text-decoration:none;line-height:normal;letter-spacing:normal;word-spacing:normal;text-transform:none;direction:ltr;block-progression:tb;writing-mode:lr-tb;text-anchor:start;baseline-shift:baseline;color:#000;fill:#f0f;fill-opacity:1;fill-rule:nonzero;stroke:none;stroke-width:4;marker:none;visibility:visible;display:inline;overflow:visible;enable-background:accumulate;font-family:Sans;-inkscape-font-specification:Sans" id="rect4589" d="m 56.581145,27.28125 c -4.028888,0.0018 -6.470567,1.252802 -9.28125,3.4375 l -11.1875,0 -6.90625,0 -3.5,2.40625 c -6.16629,4.317683 -10.130339,9.467376 -5.90625,15.5 2.558956,3.654567 5.844809,4.345383 9.40625,3.375 l 0,0.8125 c 0,6.557341 2.61796,11.90625 8.28125,11.90625 l 13.4375,0 c 5.663291,0 8.28125,-5.348909 8.28125,-11.90625 l 0,-16.96875 c 0.957398,-0.591921 2.375857,-1.260146 4.6875,-1.125 4.686902,0.274012 7.92219,6.169659 9.90625,6 1.193177,-2.249988 -4.615895,-11.875114 -13,-13.09375 -1.595115,-0.231851 -2.982991,-0.344306 -4.21875,-0.34375 z m -23.71875,7.6875 22.6875,0 0,17.84375 c 0,4.273806 -0.933899,7.65625 -4.625,7.65625 l -13.4375,0 c -3.691101,0 -4.625,-3.382444 -4.625,-7.65625 l 0,-2.28125 c 1.165391,-0.615487 2.354128,-1.36327 3.53125,-2.1875 1.192176,-0.834771 8.820045,-6.178747 9.9375,-6.96875 1.117456,-0.790003 1.4375,-1.373269 1.4375,-2.03125 0,-1.104569 -0.895431,-2 -2,-2 -0.399263,0 -0.778495,0.111194 -1.5625,0.65625 -0.784005,0.545056 -8.897295,6.202853 -10.125,7.0625 -0.4184,0.292967 -0.815069,0.569429 -1.21875,0.84375 l -3.65625,2.125 c -2.315031,0.974839 -4.347131,0.85156 -6.125,-1.6875 -2.935047,-4.191682 0.624117,-6.948487 4.9375,-9.96875 l 1.1875,-0.84375 0,10.5 3.65625,-2.125 z"/></svg>