<svg xmlns="http://www.w3.org/2000/svg" xmlns:svg="http://www.w3.org/2000/svg" id="Layer_1" width="92" height="92" x="0" y="0" enable-background="new 0 0 99.997 69.373" version="1.1" viewBox="0 0 92 92" xml:space="preserve"><metadata id="metadata9"/><g id="g4584" transform="matrix(0.70710678,0.70710678,-0.70710678,0.70710678,46.899678,-18.681164)" style="fill:#fff;fill-opacity:1"><path id="rect4410" d="m 38.999999,35.970487 0,31.741537 c 0,0 5.388908,10.83265 7,10.832651 1.611092,-10e-7 7,-10.832651 7,-10.832651 l 0,-31.741538 z m 4,3.029512 c 0,-1.288277 5.999999,-1.288277 5.999999,0 0,9.795299 1e-6,17.407064 1e-6,27.202363 0,0 -2.092806,5.797636 -2.999999,5.797636 -0.907193,10e-7 -3,-5.797636 -3,-5.797636 -10e-7,-9.795299 0,-17.407064 -10e-7,-27.202363 z" style="font-size:medium;font-style:normal;font-variant:normal;font-weight:400;font-stretch:normal;text-indent:0;text-align:start;text-decoration:none;line-height:normal;letter-spacing:normal;word-spacing:normal;text-transform:none;direction:ltr;block-progression:tb;writing-mode:lr-tb;text-anchor:start;baseline-shift:baseline;color:#000;fill:#fff;fill-opacity:1;stroke:none;stroke-width:2;marker:none;visibility:visible;display:inline;overflow:visible;enable-background:accumulate;font-family:Sans;-inkscape-font-specification:Sans"/><path id="rect4559" d="m 35.898676,32 20.202645,0 c 1.051867,0 1.898677,0.705675 1.898677,1.582231 l 0,2.835538 C 57.999999,37.294325 57.153188,38 56.101322,38 L 35.898676,38 C 34.846809,38 34,37.294325 34,36.417769 l 0,-2.835538 C 34,32.705675 34.846809,32 35.898676,32 z" style="fill:#fff;fill-opacity:1;stroke:none"/><path id="path4563" d="m 53.999999,24.201011 c 0,2.264646 0,3.798988 0,3.798988 l -16,0 c 0,0 0,-1.534342 0,-3.798988 0,-4.529294 3.581721,-8.201012 7.999998,-8.201012 4.418279,0 8.000002,3.671718 8.000002,8.201012 z" style="fill:#fff;fill-opacity:1;stroke:none"/></g></svg>