<svg xmlns="http://www.w3.org/2000/svg" xmlns:svg="http://www.w3.org/2000/svg" id="Layer_1" width="92" height="92" x="0" y="0" enable-background="new 0 0 99.997 69.373" version="1.1" viewBox="0 0 92 92" xml:space="preserve"><metadata id="metadata9"/><path style="fill:#fff;fill-opacity:1;stroke:none" id="rect4883" d="m 51.656249,23.781249 c -1.22299,0 -2.440125,0.471375 -3.375,1.40625 l -27.1875,27.1875 c -1.86975,1.86975 -1.86975,4.880249 0,6.75 l 9.09375,9.09375 0.6875,0 4.96875,0 9,0 5.28125,0 0.375,0 20.40625,-20.40625 c 1.86975,-1.86975 1.86975,-4.880249 0,-6.75 l -15.875,-15.875 c -0.934876,-0.934875 -2.15201,-1.40625 -3.375,-1.40625 z m -14.15625,17.8125 17,17 -5.65625,5.625 -17,0 -6.34375,-6.34375 c -1.172304,-1.172304 -1.046693,-3.203308 0.3125,-4.5625 l 11.6875,-11.71875 z"/></svg>