<svg xmlns="http://www.w3.org/2000/svg" xmlns:svg="http://www.w3.org/2000/svg" id="Layer_1" width="92" height="92" x="0" y="0" enable-background="new 0 0 99.997 69.373" version="1.1" viewBox="0 0 92 92" xml:space="preserve"><metadata id="metadata9"/><g id="g4836" transform="translate(-4.2675963e-4,-2.984376)" style="fill:#fff;fill-opacity:1"><path id="path4755" d="m 45,22 c -1.662,0 -3,1.445543 -3,3.25 l 0,21.125 c -0.676561,0.07586 -1.345615,0.13844 -2,0.21875 L 40,29.25 C 40,27.445543 38.662,26 37,26 c -1.662,0 -3,1.445543 -3,3.25 l 0,18.15625 c 0,0 0.06308,4.152765 0.115584,5.230135 -0.247037,0.365135 -0.525606,0.449153 -0.740581,0.285493 C 32.742845,52.149078 29.21875,46.84375 29.21875,46.84375 28.027143,45.141954 25.701788,44.745899 24,45.9375 c -1.701787,1.191609 -2.129105,3.516966 -0.9375,5.21875 0,0 12.565294,18.035587 13.826019,19.62701 1.260725,1.591423 6.894029,5.18549 11.705231,5.18549 C 57.087654,75.96875 64,70.907512 64,60.65625 L 64,56.75 64,50.40625 64,33.25 C 64,31.445543 62.662,30 61,30 c -1.662,0 -3,1.445543 -3,3.25 l 0,14.90625 c -0.649708,-0.223638 -1.324524,-0.409046 -2,-0.625 L 56,27.25 C 56,25.445543 54.662,24 53,24 c -1.662,0 -3,1.445543 -3,3.25 L 50,46 c -0.511381,-0.0741 -1.003571,-0.125 -1.40625,-0.125 -0.171066,0 -0.403931,0.02643 -0.59375,0.03125 L 48,25.25 C 48,23.445543 46.662,22 45,22 z" style="fill:#fff;fill-opacity:1;stroke:none"/></g></svg>