<?xml version="1.0" encoding="UTF-8" standalone="no"?>
<!DOCTYPE svg PUBLIC "-//W3C//DTD SVG 1.1//EN" "http://www.w3.org/Graphics/SVG/1.1/DTD/svg11.dtd">
<svg width="100%" height="100%" viewBox="0 0 92 92" version="1.1" xmlns="http://www.w3.org/2000/svg" xmlns:xlink="http://www.w3.org/1999/xlink" xml:space="preserve" xmlns:serif="http://www.serif.com/" style="fill-rule:evenodd;clip-rule:evenodd;stroke-linejoin:round;stroke-miterlimit:2;">
    <path id="rect4239" d="M62.944,23.603C59.151,23.282 50.503,34.629 44.625,40.507C38.747,46.385 27.659,56.381 26.771,57.92C24.615,61.654 31.825,69.048 35.676,66.825C37.551,65.742 47.233,54.87 53.11,48.992C58.988,43.115 70.015,34.002 70.015,30.674C70.015,27.346 66.736,23.923 62.944,23.603ZM44.813,44.562C47.217,42.158 47.61,43.419 48.767,44.214C50.111,45.137 51.851,46.009 49.055,48.805C43.856,54.004 35.374,64.091 33.665,64.196C31.955,64.3 29.289,61.621 29.422,59.953C29.555,58.285 39.613,49.762 44.813,44.562Z" style="fill:white;fill-rule:nonzero;"/>
    <path id="rect4261" d="M27.661,59.606L34.025,65.97C34.025,65.97 25.855,71.102 24.185,69.432C22.516,67.763 27.661,59.606 27.661,59.606Z" style="fill:white;fill-rule:nonzero;"/>
</svg>
